<?xml version="1.0" standalone="no"?>
<!DOCTYPE svg PUBLIC "-//W3C//DTD SVG 20010904//EN"
 "http://www.w3.org/TR/2001/REC-SVG-20010904/DTD/svg10.dtd">
<svg version="1.0" xmlns="http://www.w3.org/2000/svg"
 width="512.000000pt" height="512.000000pt" viewBox="0 0 512.000000 512.000000"
 preserveAspectRatio="xMidYMid meet">

<g transform="translate(0.000000,512.000000) scale(0.100000,-0.100000)"
fill="#000000" stroke="none">
<path d="M3119 4775 c-105 -34 -192 -125 -220 -230 -8 -29 -8 -582 0 -1975 6
-1064 14 -1958 17 -1985 7 -71 59 -161 120 -208 160 -123 392 -69 481 111 l28
57 -4 1255 c-2 690 -6 1590 -10 2000 l-6 745 -24 52 c-27 62 -103 136 -166
164 -60 27 -158 33 -216 14z"/>
<path d="M1824 4762 c-97 -34 -178 -122 -204 -222 -19 -70 6 -3935 25 -4005
52 -186 262 -285 438 -207 59 26 132 100 160 160 l22 47 -4 1255 c-2 690 -6
1590 -10 2000 l-6 745 -26 55 c-71 148 -247 225 -395 172z"/>
</g>
</svg>
