<?xml version="1.0" standalone="no"?>
<!DOCTYPE svg PUBLIC "-//W3C//DTD SVG 20010904//EN"
 "http://www.w3.org/TR/2001/REC-SVG-20010904/DTD/svg10.dtd">
<svg version="1.0" xmlns="http://www.w3.org/2000/svg"
 width="512.000000pt" height="512.000000pt" viewBox="0 0 512.000000 512.000000"
 preserveAspectRatio="xMidYMid meet">

<g transform="translate(0.000000,512.000000) scale(0.100000,-0.100000)"
fill="#000000" stroke="none">
<path d="M3849 4875 c-105 -34 -192 -125 -220 -230 -8 -29 -8 -582 0 -1975 6
-1064 14 -1958 17 -1985 7 -71 59 -161 120 -208 160 -123 392 -69 481 111 l28
57 -4 1255 c-2 690 -6 1590 -10 2000 l-6 745 -24 52 c-27 62 -103 136 -166
164 -60 27 -158 33 -216 14z"/>
<path d="M2554 4862 c-97 -34 -178 -122 -204 -222 -19 -70 6 -3935 25 -4005
52 -186 262 -285 438 -207 59 26 132 100 160 160 l22 47 -4 1255 c-2 690 -6
1590 -10 2000 l-6 745 -26 55 c-71 148 -247 225 -395 172z"/>
<path d="M1264 4850 c-71 -28 -137 -89 -171 -158 l-28 -57 4 -1245 c2 -685 6
-1585 10 -2000 6 -744 7 -756 28 -802 30 -66 96 -133 161 -165 79 -39 183 -39
263 -2 69 33 127 88 159 154 l25 50 -4 1255 c-2 690 -6 1593 -10 2005 l-7 750
-24 50 c-31 64 -92 124 -155 155 -69 33 -181 38 -251 10z"/>
</g>
</svg>
